<svg width="6" height="9" xmlns="http://www.w3.org/2000/svg"
    xmlns:xlink="http://www.w3.org/1999/xlink" xmlns:svgjs="http://svgjs.com/svgjs"
    viewBox="0.189 0 5.623 9" fill="#07c">
    <svg xmlns="http://www.w3.org/2000/svg" width="6" height="9" viewBox="1.004 1.01 4.998 8">
        <path paint-order="stroke fill markers" fill-rule="evenodd" d="M5.831 5.436a.587.587 0 0 0 .17-.425.587.587 0 0 0-.17-.425l-3.3-3.4a.553.553 0 0 0-.411-.176.557.557 0 0 0-.413.176l-.533.575a.59.59 0 0 0-.17.424.59.59 0 0 0 .17.426l2.328 2.4-2.328 2.4a.591.591 0 0 0-.17.425c0 .166.057.308.17.425l.533.575a.556.556 0 0 0 .413.174.551.551 0 0 0 .412-.174l3.3-3.4z"/>
    </svg>
</svg>